<svg width="22" height="22" viewBox="0 0 22 22" fill="none" xmlns="http://www.w3.org/2000/svg">
<path d="M0.814815 22H21.1852C21.4013 22 21.6085 21.9142 21.7613 21.7613C21.9142 21.6085 22 21.4013 22 21.1852V0.814815C22 0.598713 21.9142 0.391461 21.7613 0.238654C21.6085 0.0858463 21.4013 0 21.1852 0H0.814815C0.598713 0 0.391461 0.0858463 0.238654 0.238654C0.0858463 0.391461 0 0.598713 0 0.814815V21.1852C0 21.4013 0.0858463 21.6085 0.238654 21.7613C0.391461 21.9142 0.598713 22 0.814815 22ZM11.8148 1.62963H20.3704V10.1852H11.8148V1.62963ZM11.8148 11.8148H20.3704V20.3704H11.8148V11.8148ZM1.62963 1.62963H10.1852V10.1852H1.62963V1.62963ZM1.62963 11.8148H10.1852V20.3704H1.62963V11.8148Z" fill="#223142"/>
</svg>
