<svg width="29" height="20" viewBox="0 0 29 20" fill="none" xmlns="http://www.w3.org/2000/svg">
<path d="M22.4091 18.125C23.5032 18.125 24.3864 17.2875 24.3864 16.25C24.3864 15.2125 23.5032 14.375 22.4091 14.375C21.315 14.375 20.4318 15.2125 20.4318 16.25C20.4318 17.2875 21.315 18.125 22.4091 18.125ZM24.3864 6.875H21.0909V10H26.97L24.3864 6.875ZM6.59091 18.125C7.685 18.125 8.56818 17.2875 8.56818 16.25C8.56818 15.2125 7.685 14.375 6.59091 14.375C5.49682 14.375 4.61364 15.2125 4.61364 16.25C4.61364 17.2875 5.49682 18.125 6.59091 18.125ZM25.0455 5L29 10V16.25H26.3636C26.3636 18.325 24.5973 20 22.4091 20C20.2209 20 18.4545 18.325 18.4545 16.25H10.5455C10.5455 18.325 8.77909 20 6.59091 20C4.40273 20 2.63636 18.325 2.63636 16.25H0V2.5C0 1.1125 1.17318 0 2.63636 0H21.0909V5H25.0455ZM2.63636 2.5V13.75H3.63818C4.36318 12.9875 5.41773 12.5 6.59091 12.5C7.76409 12.5 8.81864 12.9875 9.54364 13.75H18.4545V2.5H2.63636ZM11.8636 3.75L16.4773 8.125L11.8636 12.5V9.375H5.27273V6.875H11.8636V3.75Z" fill="#223142"/>
</svg>
