<svg width="27" height="27" viewBox="0 0 27 27" fill="none" xmlns="http://www.w3.org/2000/svg">
<path d="M13.5 5.47232C9.11853 5.47232 5.5567 9.03415 5.55067 13.4156C5.55067 14.9163 5.97255 16.3808 6.76808 17.6404L6.95491 17.9417L6.15335 20.8708L9.16071 20.0813L9.45 20.256C10.6674 20.9792 12.0656 21.365 13.494 21.365H13.5C17.8754 21.365 21.5337 17.8031 21.5337 13.4217C21.5337 11.3002 20.6176 9.30536 19.117 7.80469C17.6103 6.29799 15.6214 5.47232 13.5 5.47232ZM18.1708 16.8268C17.9719 17.3873 17.0196 17.8935 16.5616 17.9598C15.8022 18.0743 15.2116 18.0141 13.6989 17.3632C11.3063 16.3266 9.73929 13.9158 9.61875 13.7592C9.49821 13.6025 8.64241 12.4634 8.64241 11.2882C8.64241 10.1129 9.25714 9.53438 9.48013 9.2933C9.6971 9.05223 9.95625 8.99196 10.119 8.99196C10.2757 8.99196 10.4384 8.99196 10.577 8.99799C10.7217 9.00402 10.9205 8.94375 11.1134 9.40781C11.3123 9.88393 11.7884 11.0592 11.8487 11.1797C11.9089 11.3002 11.9511 11.4388 11.8667 11.5955C11.4087 12.5116 10.9205 12.4754 11.1676 12.8973C12.0897 14.4824 13.0118 15.0308 14.4161 15.7359C14.6571 15.8565 14.7958 15.8384 14.9344 15.6757C15.073 15.519 15.531 14.9766 15.6877 14.7415C15.8444 14.5004 16.0071 14.5426 16.2241 14.621C16.4411 14.6993 17.6163 15.2779 17.8574 15.3984C18.0984 15.519 18.2551 15.5792 18.3154 15.6757C18.3696 15.7902 18.3696 16.2723 18.1708 16.8268ZM24.1071 0H2.89286C1.29576 0 0 1.29576 0 2.89286V24.1071C0 25.7042 1.29576 27 2.89286 27H24.1071C25.7042 27 27 25.7042 27 24.1071V2.89286C27 1.29576 25.7042 0 24.1071 0ZM13.494 22.9741C11.8908 22.9741 10.3179 22.5703 8.92567 21.8109L3.85714 23.1429L5.21317 18.1888C4.37545 16.7424 3.93549 15.0971 3.93549 13.4096C3.94152 8.14219 8.22656 3.85714 13.494 3.85714C16.0493 3.85714 18.448 4.85156 20.256 6.6596C22.058 8.46763 23.1429 10.8663 23.1429 13.4217C23.1429 18.6891 18.7614 22.9741 13.494 22.9741Z" fill="white"/>
</svg>
