<svg width="27" height="27" viewBox="0 0 27 27" fill="none" xmlns="http://www.w3.org/2000/svg">
<path d="M24.2022 0.240967H3.68415C2.13947 0.240967 0.88623 1.4942 0.88623 3.03889V23.557C0.88623 25.1016 2.13947 26.3549 3.68415 26.3549H24.2022C25.7469 26.3549 27.0001 25.1016 27.0001 23.557V3.03889C27.0001 1.4942 25.7469 0.240967 24.2022 0.240967ZM21.3518 9.49742C21.3635 9.66063 21.3635 9.82967 21.3635 9.99288C21.3635 15.0466 17.5164 20.8698 10.4866 20.8698C8.3182 20.8698 6.3072 20.2403 4.61679 19.1561C4.92573 19.191 5.22301 19.2027 5.53777 19.2027C7.32727 19.2027 8.97105 18.5965 10.2826 17.5706C8.60383 17.5356 7.19321 16.4339 6.7094 14.9184C7.29813 15.0058 7.82857 15.0058 8.43478 14.8484C6.68608 14.4929 5.37456 12.954 5.37456 11.0946V11.0479C5.88168 11.3336 6.47624 11.5084 7.09994 11.5317C6.57558 11.183 6.14573 10.7098 5.84873 10.1544C5.55174 9.5991 5.39684 8.97887 5.39788 8.3491C5.39788 7.63797 5.5844 6.98512 5.91666 6.41971C7.79942 8.73965 10.6265 10.2552 13.7975 10.4184C13.2554 7.8245 15.1964 5.72023 17.528 5.72023C18.6297 5.72023 19.6206 6.18072 20.3201 6.92683C21.1828 6.76362 22.0105 6.44302 22.745 6.00585C22.4594 6.89185 21.859 7.63797 21.0662 8.11012C21.8357 8.02851 22.5818 7.81284 23.2696 7.51556C22.7508 8.27916 22.098 8.95532 21.3518 9.49742Z" fill="white"/>
</svg>
