<svg width="28" height="27" viewBox="0 0 28 27" fill="none" xmlns="http://www.w3.org/2000/svg">
<path d="M13.9998 10.1887C13.3849 10.189 12.7839 10.3715 12.2728 10.7133C11.7616 11.0551 11.3633 11.5407 11.1281 12.1089C10.893 12.677 10.8316 13.3022 10.9517 13.9052C11.0718 14.5083 11.368 15.0622 11.8029 15.4969C12.2378 15.9316 12.7918 16.2276 13.3949 16.3475C13.9979 16.4673 14.623 16.4057 15.1911 16.1703C15.7592 15.935 16.2447 15.5365 16.5863 15.0252C16.9279 14.5139 17.1102 13.9128 17.1102 13.2979C17.1096 12.4733 16.7816 11.6827 16.1984 11.0997C15.6152 10.5167 14.8245 10.189 13.9998 10.1887ZM21.2692 7.79885C21.1109 7.39772 20.8719 7.03339 20.567 6.72847C20.262 6.42355 19.8977 6.18453 19.4966 6.02625C18.2725 5.54302 15.358 5.65144 13.9998 5.65144C12.6417 5.65144 9.73009 5.53894 8.5025 6.02625C8.10137 6.18453 7.73705 6.42355 7.43212 6.72847C7.1272 7.03339 6.88818 7.39772 6.7299 7.79885C6.24726 9.02294 6.3551 11.9404 6.3551 13.2973C6.3551 14.6543 6.24726 17.5682 6.73223 18.7964C6.89052 19.1975 7.12953 19.5619 7.43446 19.8668C7.73938 20.1717 8.1037 20.4107 8.50483 20.569C9.72892 21.0522 12.6434 20.9438 14.0022 20.9438C15.3609 20.9438 18.2713 21.0563 19.4989 20.569C19.9 20.4107 20.2644 20.1717 20.5693 19.8668C20.8742 19.5619 21.1132 19.1975 21.2715 18.7964C21.7582 17.5723 21.6463 14.6549 21.6463 13.2979C21.6463 11.9409 21.7582 9.0276 21.2715 7.79943L21.2692 7.79885ZM13.9998 18.0777C13.0545 18.0777 12.1304 17.7974 11.3443 17.2722C10.5583 16.747 9.94566 16.0005 9.58389 15.1271C9.22212 14.2537 9.12746 13.2926 9.31189 12.3654C9.49632 11.4383 9.95155 10.5866 10.62 9.91811C11.2885 9.24965 12.1402 8.79442 13.0673 8.60999C13.9945 8.42556 14.9556 8.52022 15.829 8.88198C16.7024 9.24376 17.4489 9.85639 17.9741 10.6424C18.4993 11.4285 18.7796 12.3526 18.7796 13.2979C18.7804 13.9258 18.6573 14.5477 18.4173 15.128C18.1774 15.7082 17.8254 16.2355 17.3814 16.6795C16.9374 17.1234 16.4101 17.4755 15.8299 17.7154C15.2496 17.9554 14.6277 18.0785 13.9998 18.0777ZM18.9766 9.4333C18.7559 9.43341 18.5402 9.36808 18.3566 9.24556C18.1731 9.12304 18.03 8.94883 17.9455 8.74498C17.8609 8.54113 17.8388 8.31679 17.8817 8.10033C17.9247 7.88387 18.0309 7.68502 18.1869 7.52894C18.3429 7.37285 18.5417 7.26653 18.7582 7.22344C18.9746 7.18034 19.199 7.2024 19.4029 7.28683C19.6068 7.37125 19.781 7.51425 19.9037 7.69773C20.0263 7.88122 20.0917 8.09694 20.0917 8.31763C20.0923 8.46418 20.064 8.6094 20.0084 8.74498C19.9527 8.88056 19.8709 9.00382 19.7675 9.10769C19.6641 9.21156 19.5412 9.29399 19.4059 9.35027C19.2706 9.40655 19.1255 9.43556 18.979 9.43563L18.9766 9.4333ZM24.2589 0.240967H3.74079C2.99874 0.240967 2.28707 0.535747 1.76236 1.06046C1.23765 1.58517 0.942871 2.29683 0.942871 3.03889L0.942871 23.557C0.942871 24.299 1.23765 25.0107 1.76236 25.5354C2.28707 26.0601 2.99874 26.3549 3.74079 26.3549H24.2589C25.0009 26.3549 25.7126 26.0601 26.2373 25.5354C26.762 25.0107 27.0568 24.299 27.0568 23.557V3.03889C27.0568 2.29683 26.762 1.58517 26.2373 1.06046C25.7126 0.535747 25.0009 0.240967 24.2589 0.240967ZM23.2609 17.1451C23.1858 18.639 22.8448 19.9628 21.7541 21.0505C20.6635 22.1382 19.3409 22.4862 17.8487 22.5573C16.3093 22.6441 11.6939 22.6441 10.1544 22.5573C8.66047 22.4821 7.34136 22.1405 6.24901 21.0505C5.15665 19.9605 4.81333 18.6361 4.74221 17.1451C4.65536 15.605 4.65536 10.9891 4.74221 9.45079C4.81741 7.95681 5.15432 6.63305 6.24901 5.54536C7.3437 4.45766 8.6663 4.11375 10.1544 4.04264C11.6939 3.95579 16.3093 3.95579 17.8487 4.04264C19.3427 4.11783 20.6659 4.45941 21.7541 5.54944C22.8424 6.63946 23.1898 7.96381 23.2609 9.45778C23.3478 10.992 23.3478 15.6039 23.2609 17.1451Z" fill="white"/>
</svg>
