<svg width="27" height="27" viewBox="0 0 27 27" fill="none" xmlns="http://www.w3.org/2000/svg">
<path d="M23.316 0.240967H2.79792C2.05587 0.240967 1.3442 0.535747 0.819492 1.06046C0.29478 1.58517 0 2.29683 0 3.03889L0 23.557C0 24.299 0.29478 25.0107 0.819492 25.5354C1.3442 26.0601 2.05587 26.3549 2.79792 26.3549H10.7982V17.4767H7.12595V13.2979H10.7982V10.113C10.7982 6.49024 12.955 4.48914 16.2582 4.48914C17.8402 4.48914 19.4945 4.77127 19.4945 4.77127V8.32695H17.6718C15.8759 8.32695 15.3157 9.44146 15.3157 10.5845V13.2979H19.3249L18.6837 17.4767H15.3157V26.3549H23.316C24.0581 26.3549 24.7697 26.0601 25.2944 25.5354C25.8191 25.0107 26.1139 24.299 26.1139 23.557V3.03889C26.1139 2.29683 25.8191 1.58517 25.2944 1.06046C24.7697 0.535747 24.0581 0.240967 23.316 0.240967Z" fill="white"/>
</svg>
