<svg width="24" height="30" viewBox="0 0 24 30" fill="none" xmlns="http://www.w3.org/2000/svg">
<path d="M3.13367 7.34375C2.51867 7.34375 1.96367 6.7775 1.96367 6.15125C1.96367 4.7075 5.53617 3.63875 9.60117 3.63875C9.96992 3.63875 10.2162 3.63875 10.2162 3.32625C10.2162 2.76125 8.98492 2.57375 8.98492 1.6325C8.98492 0.6275 10.1549 0 11.6324 0C13.1112 0 14.2812 0.6275 14.2812 1.6325C14.2812 2.57375 13.0499 2.69875 13.0499 3.32625C13.0499 3.515 13.2349 3.64 13.6649 3.64C17.7299 3.64 21.3649 4.64375 21.3649 6.15125C21.3664 6.30642 21.3373 6.46036 21.2792 6.60425C21.2211 6.74815 21.1352 6.87917 21.0264 6.98982C20.9176 7.10048 20.788 7.18858 20.6452 7.2491C20.5023 7.30962 20.3488 7.34136 20.1937 7.3425H3.13492L3.13367 7.34375ZM21.5487 13.0538C23.0274 13.995 23.5812 15.69 23.3362 17.26L21.6112 26.735C21.2412 28.6213 19.6387 30 17.7287 30H5.65867C3.75117 30 2.14867 28.62 1.77867 26.7362L0.0536708 17.26C-0.0758172 16.4643 0.0302039 15.648 0.358683 14.9118C0.687161 14.1755 1.22376 13.5514 1.90242 13.1163C2.76492 12.49 2.94867 11.4225 1.90242 11.0462C0.423671 10.4812 0.731171 8.66125 2.20992 8.66125H11.2012C12.6174 8.66125 14.3437 9.7275 14.3437 13.18C14.3437 16.6325 12.7412 16.3175 12.7412 18.765C12.7412 19.8325 13.6037 20.9625 14.6499 21.0888C16.4374 21.2763 17.4837 20.5863 17.4837 18.0763C17.4837 15.5013 16.0062 14.31 16.0062 12.1763C16.0062 9.6025 17.6062 8.5975 18.6537 8.5975H21.2412C22.7187 8.5975 23.0274 10.4187 21.5487 10.9837C20.5024 11.4212 20.6862 12.49 21.5487 13.0538Z" fill="#223142"/>
</svg>
