<svg width="26" height="27" viewBox="0 0 26 27" fill="none" xmlns="http://www.w3.org/2000/svg">
<path d="M13 0.875C13.8288 0.875 14.6237 1.20424 15.2097 1.79029C15.7958 2.37634 16.125 3.1712 16.125 4C16.125 4.8288 15.7958 5.62366 15.2097 6.20971C14.6237 6.79576 13.8288 7.125 13 7.125C12.1712 7.125 11.3763 6.79576 10.7903 6.20971C10.2042 5.62366 9.875 4.8288 9.875 4C9.875 3.1712 10.2042 2.37634 10.7903 1.79029C11.3763 1.20424 12.1712 0.875 13 0.875ZM17.8375 5.25C20.5 5.25 23 7.75 23 10.25C26.375 10.25 26.375 15.25 23 15.25H3C-0.375 15.25 -0.375 10.25 3 10.25C3 7.75 5.5 5.25 8.1625 5.25C8.7125 7.4125 10.675 9 13 9C15.325 9 17.2875 7.4125 17.8375 5.25ZM4.25 17.75H8L9.25 26.5H6.75L4.25 17.75ZM10.5 17.75H15.5L14.25 26.5H11.75L10.5 17.75ZM18 17.75H21.75L19.25 26.5H16.75L18 17.75Z" fill="#223142"/>
</svg>
