<svg width="26" height="30" viewBox="0 0 26 30" fill="none" xmlns="http://www.w3.org/2000/svg">
<path d="M12.8308 29.4C5.90684 29.4 0.273438 23.7666 0.273438 16.842C0.273438 12.4104 2.53904 8.39218 6.33464 6.09418C6.52788 5.97713 6.74228 5.89929 6.9656 5.8651C7.18893 5.83092 7.4168 5.84105 7.6362 5.89493C7.85561 5.9488 8.06225 6.04537 8.24434 6.17911C8.42643 6.31284 8.58039 6.48114 8.69744 6.67438C8.81449 6.86762 8.89232 7.08202 8.92651 7.30534C8.9607 7.52867 8.95057 7.75653 8.89669 7.97594C8.84281 8.19535 8.74625 8.40199 8.61251 8.58408C8.47877 8.76617 8.31048 8.92013 8.11724 9.03718C5.36024 10.7064 3.71444 13.6248 3.71444 16.842C3.71444 21.8694 7.80404 25.959 12.8314 25.959C17.8588 25.959 21.9478 21.8694 21.9478 16.842C21.9478 13.572 20.1814 10.533 17.3356 8.91298C17.1352 8.80341 16.9586 8.65502 16.8162 8.47648C16.6737 8.29794 16.5683 8.09281 16.5059 7.87308C16.4436 7.65334 16.4257 7.42339 16.4531 7.19664C16.4806 6.96989 16.553 6.75089 16.666 6.55241C16.779 6.35393 16.9305 6.17994 17.1115 6.0406C17.2924 5.90126 17.4994 5.79936 17.7201 5.74085C17.9409 5.68233 18.1712 5.66837 18.3974 5.69978C18.6236 5.73118 18.8413 5.80733 19.0378 5.92378C20.9644 7.02306 22.5664 8.61178 23.6816 10.5291C24.7969 12.4465 25.3858 14.6245 25.3888 16.8426C25.3882 23.7666 19.756 29.4 12.8308 29.4ZM12.7 16.6704C11.7502 16.6704 10.6 15.9 10.6 14.9502V2.56438C10.6 1.61458 11.7502 0.844177 12.7 0.844177C13.6498 0.844177 14.8 1.61458 14.8 2.56438V14.9502C14.8 15.9 13.6498 16.6704 12.7 16.6704Z" fill="#223142"/>
</svg>
