<svg width="30" height="30" viewBox="0 0 30 30" fill="none" xmlns="http://www.w3.org/2000/svg">
<path d="M15 1.875V28.125" stroke="#223142" stroke-width="1.875" stroke-linecap="round" stroke-linejoin="round"/>
<path d="M18.382 4.6875C17.3613 5.3027 16.1917 5.6269 15 5.625C13.8082 5.6269 12.6386 5.3027 11.6179 4.6875" stroke="#223142" stroke-width="1.875" stroke-linecap="round" stroke-linejoin="round"/>
<path d="M11.6179 25.3125C12.6394 24.699 13.8084 24.375 15 24.375C16.1915 24.375 17.3605 24.699 18.382 25.3125" stroke="#223142" stroke-width="1.875" stroke-linecap="round" stroke-linejoin="round"/>
<path d="M26.3665 8.4375L3.6333 21.5625" stroke="#223142" stroke-width="1.875" stroke-linecap="round" stroke-linejoin="round"/>
<path d="M25.6212 12.7734C24.579 12.1955 23.7137 11.3448 23.1181 10.3126C22.5224 9.28043 22.2188 8.10561 22.2398 6.91406" stroke="#223142" stroke-width="1.875" stroke-linecap="round" stroke-linejoin="round"/>
<path d="M4.37866 17.2266C5.42086 17.8045 6.28615 18.6552 6.88183 19.6874C7.4775 20.7196 7.78111 21.8944 7.76011 23.0859" stroke="#223142" stroke-width="1.875" stroke-linecap="round" stroke-linejoin="round"/>
<path d="M3.6333 8.4375L26.3665 21.5625" stroke="#223142" stroke-width="1.875" stroke-linecap="round" stroke-linejoin="round"/>
<path d="M4.37866 12.7734C5.42086 12.1955 6.28615 11.3448 6.88183 10.3126C7.4775 9.28043 7.78111 8.10561 7.76011 6.91406" stroke="#223142" stroke-width="1.875" stroke-linecap="round" stroke-linejoin="round"/>
<path d="M25.6212 17.2266C24.579 17.8045 23.7137 18.6552 23.1181 19.6874C22.5224 20.7196 22.2188 21.8944 22.2398 23.0859" stroke="#223142" stroke-width="1.875" stroke-linecap="round" stroke-linejoin="round"/>
</svg>
