<svg width="30" height="27" viewBox="0 0 30 27" fill="none" xmlns="http://www.w3.org/2000/svg">
<path d="M28.125 9.375C28.125 11.875 27.5 13.125 26.25 13.125C26.1914 13.125 26.1426 13.1738 26.1035 13.2715C26.2012 13.8965 26.25 14.4727 26.25 15C26.25 17.1094 25.7178 19.2041 24.6533 21.2842C23.5889 23.3643 22.1973 25.0195 20.4785 26.25H9.52148C7.58789 24.8633 6.07422 22.9395 4.98047 20.4785C4.62891 20.5762 4.21875 20.625 3.75 20.625C3.08594 20.625 2.46094 20.1709 1.875 19.2627C1.28906 18.3545 0.830078 17.2559 0.498047 15.9668C0.166016 14.6777 0 13.418 0 12.1875C0 9.0625 1.25 7.5 3.75 7.5C4.74609 7.5 5.52734 7.71484 6.09375 8.14453C7.14844 6.77734 8.45215 5.70312 10.0049 4.92188C11.5576 4.14062 13.2227 3.75 15 3.75C16.8945 3.75 18.6621 4.19434 20.3027 5.08301C21.9434 5.97168 23.2812 7.17773 24.3164 8.70117C24.3555 8.58398 24.375 8.49609 24.375 8.4375C24.375 7.14844 24.834 6.04492 25.752 5.12695C26.6699 4.20898 27.7734 3.75 29.0625 3.75C29.375 3.75 29.6875 3.7793 30 3.83789V7.5C29.4727 7.5 29.0283 7.68066 28.667 8.04199C28.3057 8.40332 28.125 8.84766 28.125 9.375ZM3.75 9.375C2.5 9.375 1.875 10.4883 1.875 12.7148C1.875 13.8281 2.14355 15.0049 2.68066 16.2451C3.21777 17.4854 3.75977 18.2715 4.30664 18.6035C3.93555 17.334 3.75 16.1328 3.75 15C3.75 13.3398 4.11133 11.748 4.83398 10.2246C4.50195 9.6582 4.14062 9.375 3.75 9.375ZM13.125 1.86035C13.125 1.34277 13.3057 0.90332 13.667 0.541992C14.0283 0.180664 14.4678 0 14.9854 0C15.5029 0 15.9473 0.180664 16.3184 0.541992C16.6895 0.90332 16.875 1.34277 16.875 1.86035C16.875 2.37793 16.6895 2.82227 16.3184 3.19336C15.9473 3.56445 15.5029 3.75 14.9854 3.75C14.4678 3.75 14.0283 3.56445 13.667 3.19336C13.3057 2.82227 13.125 2.37793 13.125 1.86035Z" fill="#223142"/>
</svg>
