<svg width="22" height="23" viewBox="0 0 22 23" fill="none" xmlns="http://www.w3.org/2000/svg">
<path d="M21.351 11.038L11.451 1.138C11.055 0.742 10.505 0.5 9.9 0.5H2.2C0.99 0.5 0 1.49 0 2.7V10.4C0 11.005 0.242 11.555 0.649 11.962L10.549 21.862C10.945 22.258 11.495 22.5 12.1 22.5C12.705 22.5 13.255 22.258 13.651 21.851L21.351 14.151C21.758 13.755 22 13.205 22 12.6C22 11.995 21.747 11.434 21.351 11.038ZM3.85 6C2.937 6 2.2 5.263 2.2 4.35C2.2 3.437 2.937 2.7 3.85 2.7C4.763 2.7 5.5 3.437 5.5 4.35C5.5 5.263 4.763 6 3.85 6Z" fill="#223142"/>
</svg>
