<svg width="28" height="28" viewBox="0 0 28 28" fill="none" xmlns="http://www.w3.org/2000/svg">
<path d="M27.3241 8.60001C27.322 8.50375 27.309 8.40803 27.2854 8.31468C27.2761 8.28134 27.2574 8.24934 27.2454 8.21601C27.2174 8.14001 27.1921 8.06534 27.1521 7.99601C27.1307 7.96001 27.1014 7.93068 27.0761 7.89601C27.0334 7.83601 26.9921 7.77468 26.9401 7.72268C26.9094 7.69334 26.8694 7.66934 26.8361 7.64134C26.7841 7.59868 26.7361 7.55201 26.6761 7.51601C26.6707 7.51201 26.6641 7.51201 26.6574 7.50801L26.6467 7.50001L14.6747 0.846677C14.4769 0.736979 14.2545 0.679311 14.0283 0.679078C13.802 0.678845 13.5795 0.736054 13.3814 0.845344L1.35341 7.49868C1.34941 7.50268 1.34541 7.50801 1.33875 7.51201L1.32541 7.51734C1.27875 7.54401 1.24408 7.58268 1.20008 7.61468C1.15208 7.65068 1.10141 7.68268 1.05875 7.72401C1.01875 7.76534 0.988081 7.81334 0.953415 7.86001C0.917415 7.90668 0.877415 7.94801 0.848081 7.99868C0.813415 8.05601 0.794748 8.12134 0.769415 8.18401C0.750748 8.22801 0.726748 8.26934 0.714748 8.31734C0.691721 8.40899 0.678755 8.50288 0.676081 8.59734C0.674748 8.62001 0.666748 8.64001 0.666748 8.66401V19.3333C0.666748 19.8173 0.929415 20.264 1.35341 20.4987L13.3241 27.148L13.3254 27.1493L13.3281 27.1507L13.3547 27.1653C13.4121 27.1973 13.4747 27.2147 13.5347 27.2373C13.5774 27.2547 13.6187 27.2773 13.6641 27.2893C13.8854 27.3464 14.1175 27.3464 14.3387 27.2893C14.3827 27.2773 14.4241 27.2547 14.4681 27.2373C14.5281 27.2147 14.5907 27.1987 14.6481 27.1653L14.6747 27.1507L14.6774 27.1493L14.6787 27.148L26.6494 20.4987C27.0707 20.264 27.3334 19.8173 27.3334 19.3333V8.66401C27.3334 8.64134 27.3254 8.62268 27.3241 8.60001ZM13.9627 13.8293L4.74408 8.67334L8.42675 6.63601L17.5387 11.8427L13.9627 13.8293ZM14.0267 3.53734L23.2547 8.66668L20.2627 10.3293L11.1561 5.12534L14.0267 3.53734ZM15.3334 23.7347L15.3361 16.1627L19.3334 13.9253V18L22.0001 16.6667V12.4333L24.6667 10.9413V18.548L15.3334 23.7347Z" fill="#223142"/>
</svg>
