<svg width="26" height="26" viewBox="0 0 26 26" fill="none" xmlns="http://www.w3.org/2000/svg">
<path d="M13 0.8125C6.27988 0.8125 0.8125 6.27988 0.8125 13C0.8125 19.7201 6.27988 25.1875 13 25.1875C19.7201 25.1875 25.1875 19.7201 25.1875 13C25.1875 6.27988 19.7201 0.8125 13 0.8125ZM21.3789 18.625H18.7293C18.6472 18.6248 18.5666 18.6031 18.4955 18.5619C18.4245 18.5208 18.3655 18.4617 18.3244 18.3906L17.3787 16.7688C17.3165 16.6627 17.2984 16.5364 17.3283 16.4172L18.199 12.9062C18.2165 12.8355 18.2502 12.7698 18.2975 12.7144C18.3448 12.6589 18.4044 12.6153 18.4715 12.5869L20.118 11.8896C20.1984 11.8555 20.2868 11.8446 20.3732 11.858C20.4595 11.8715 20.5404 11.9088 20.6066 11.9658L23.0459 14.0646C23.106 14.1164 23.152 14.1826 23.1796 14.257C23.2072 14.3314 23.2154 14.4116 23.2035 14.49C23.0015 15.876 22.5173 17.2057 21.7809 18.3971C21.7393 18.4665 21.6804 18.5241 21.6099 18.564C21.5395 18.604 21.4599 18.625 21.3789 18.625ZM5.88203 11.8943L7.52852 12.5916C7.59563 12.62 7.65519 12.6636 7.70249 12.7191C7.74979 12.7745 7.78351 12.8402 7.80098 12.9109L8.67168 16.4219C8.70165 16.5411 8.68355 16.6674 8.62129 16.7734L7.67559 18.3906C7.63454 18.4617 7.57553 18.5208 7.50447 18.5619C7.43342 18.6031 7.35281 18.6248 7.2707 18.625H4.62109C4.54096 18.625 4.46215 18.6046 4.39219 18.5655C4.32223 18.5264 4.26346 18.47 4.22148 18.4018C3.48504 17.2104 3.00084 15.8807 2.79883 14.4947C2.78695 14.4163 2.79518 14.3361 2.82275 14.2617C2.85032 14.1873 2.89632 14.1211 2.95645 14.0693L5.3957 11.9705C5.46173 11.914 5.54218 11.8769 5.62806 11.8634C5.71395 11.85 5.80188 11.8607 5.88203 11.8943ZM20.9371 6.78262L19.8783 9.79316C19.857 9.85469 19.8232 9.91111 19.7789 9.95883C19.7346 10.0065 19.6809 10.0445 19.6211 10.0703L17.8879 10.8045C17.8084 10.8381 17.7211 10.8492 17.6357 10.8363C17.5503 10.8235 17.4701 10.7874 17.4039 10.7318L14.1074 7.9668C14.0547 7.92322 14.0122 7.86864 13.9829 7.8069C13.9535 7.74516 13.938 7.67774 13.9375 7.60938V5.6418C13.9375 5.5647 13.9566 5.48881 13.993 5.42085C14.0294 5.35288 14.082 5.29493 14.1461 5.25215L16.6557 3.57988C16.7212 3.53617 16.7966 3.50966 16.8751 3.50279C16.9535 3.49593 17.0324 3.50894 17.1045 3.54062C18.5485 4.17043 19.83 5.12107 20.8516 6.32031C20.9053 6.38301 20.9415 6.45878 20.9565 6.53996C20.9715 6.62114 20.9648 6.70485 20.9371 6.78262ZM9.34375 3.57988L11.8539 5.25215C11.918 5.29493 11.9706 5.35288 12.007 5.42085C12.0434 5.48881 12.0625 5.5647 12.0625 5.6418V7.60938C12.0625 7.67785 12.0475 7.74549 12.0185 7.80755C11.9896 7.8696 11.9474 7.92456 11.8949 7.96855L8.59844 10.7336C8.53229 10.7891 8.45209 10.8253 8.36668 10.8381C8.28128 10.8509 8.19399 10.8399 8.11445 10.8062L6.37891 10.0703C6.31876 10.0448 6.2646 10.0071 6.2199 9.95946C6.1752 9.91183 6.14095 9.85539 6.11934 9.79375L5.06055 6.7832C5.03303 6.70516 5.02667 6.62122 5.04211 6.53991C5.05755 6.45861 5.09423 6.38284 5.14844 6.32031C6.17061 5.11986 7.45314 4.16838 8.89844 3.53828C8.97025 3.50756 9.0486 3.49528 9.12638 3.50255C9.20415 3.50981 9.27887 3.5364 9.34375 3.57988ZM10.358 22.767L9.20195 19.8555C9.17552 19.7893 9.16452 19.7179 9.1698 19.6469C9.17508 19.5758 9.1965 19.5069 9.23242 19.4453L10.1213 17.9219C10.1623 17.8508 10.2213 17.7917 10.2924 17.7506C10.3635 17.7094 10.4441 17.6877 10.5262 17.6875H15.4738C15.5559 17.6877 15.6365 17.7094 15.7076 17.7506C15.7787 17.7917 15.8377 17.8508 15.8787 17.9219L16.7682 19.4453C16.8042 19.5068 16.8257 19.5757 16.8311 19.6468C16.8365 19.7179 16.8256 19.7892 16.7992 19.8555L15.6514 22.7658C15.6233 22.837 15.5782 22.9002 15.5201 22.9499C15.462 22.9997 15.3926 23.0344 15.318 23.0512C13.7948 23.4008 12.2122 23.4008 10.6891 23.0512C10.615 23.0342 10.5461 22.9995 10.4885 22.9499C10.4308 22.9004 10.386 22.8377 10.358 22.767Z" fill="#223142"/>
</svg>
