<svg xmlns="http://www.w3.org/2000/svg" viewBox="0 0 110.71 82.68"><defs><style>.cls-1{fill:#ffdd73;}.cls-2{fill:#e3424b;}.cls-3{fill:#223142;}</style></defs><title>Asset 9582sd45sdsfgh</title><g id="Layer_2" data-name="Layer 2"><g id="Layer_1-2" data-name="Layer 1"><path class="cls-1" d="M49.32.41A1.32,1.32,0,0,0,48.43,0a1.22,1.22,0,0,0-.9.38l-23,22.8,4.58,4.58L52.13,5a1.36,1.36,0,0,0,.45-.83.89.89,0,0,0-.28-.76Z"/><path class="cls-1" d="M63.18.38a1.19,1.19,0,0,0-.9-.38,1.32,1.32,0,0,0-.88.41l-3,3a.89.89,0,0,0-.28.76,1.46,1.46,0,0,0,.45.83l23,22.78,4.58-4.58Z"/><path class="cls-2" d="M110.38,22.59a1.18,1.18,0,0,0-.91-.37H1.24a1.42,1.42,0,0,0-.9.27.88.88,0,0,0-.34.73v4.23a1.29,1.29,0,0,0,.34.91,1.2,1.2,0,0,0,.9.37H8.87V69a13.55,13.55,0,0,0,10.55,13.2,13,13,0,0,0,2.17.31l4.83,0h1.8a1.43,1.43,0,0,0,.91-.27.9.9,0,0,0,.34-.73V77.25a1.33,1.33,0,0,0-.34-.91,1.2,1.2,0,0,0-.91-.36H22.4a7,7,0,0,1-7-7V28.73h94.09a1.45,1.45,0,0,0,.91-.27.92.92,0,0,0,.33-.74V23.5A1.29,1.29,0,0,0,110.38,22.59Z"/><path class="cls-3" d="M53.73,50.34a6.81,6.81,0,0,0-5-1.72H27.88a10.17,10.17,0,0,1,1.34-3.57,6.53,6.53,0,0,1,2-2,6.87,6.87,0,0,1,2.43-.94,15.51,15.51,0,0,1,2.64-.22c.56,0,1.12,0,1.67,0s1.1,0,1.67,0a1.41,1.41,0,0,0,1-.42,1.29,1.29,0,0,0,.44-1V36.64a1.22,1.22,0,0,0-.48-1,2,2,0,0,0-1.13-.46A26.55,26.55,0,0,0,36.64,35a16.42,16.42,0,0,0-5.56.91,13.74,13.74,0,0,0-5.8,3.86,13.8,13.8,0,0,0-1.83,2.6,15.53,15.53,0,0,0-1.71,5.09c0,1.08,0,2.15,0,3.21s0,2.12,0,3.2a1.33,1.33,0,0,0,.43,1,1.36,1.36,0,0,0,1,.41H48.73v6.88H20.66a1.37,1.37,0,0,0-1,.42,1.39,1.39,0,0,0-.42,1v3.85a1.4,1.4,0,0,0,.42,1,1.37,1.37,0,0,0,1,.42H54a1.35,1.35,0,0,0,1-.42,1.4,1.4,0,0,0,.41-1L55.47,56Q55.47,52.07,53.73,50.34Z"/><path class="cls-3" d="M77.25,45.83a6.73,6.73,0,0,0-5-1.74H62.18a1.42,1.42,0,0,0-1.44,1.44v3.85a1.32,1.32,0,0,0,.41,1,1.41,1.41,0,0,0,1,.41H72.26V62.18H59.86a1.36,1.36,0,0,0-1,.42,1.38,1.38,0,0,0-.41,1v3.85a1.4,1.4,0,0,0,.41,1,1.36,1.36,0,0,0,1,.42h12.4a6.73,6.73,0,0,0,5-1.74Q79,65.41,79,61.45v-10Q79,47.57,77.25,45.83Z"/><path class="cls-3" d="M89,35.48a1.33,1.33,0,0,0-1-.43H84.16a1.47,1.47,0,0,0-1.45,1.44V67.65a1.32,1.32,0,0,0,.43,1,1.38,1.38,0,0,0,1,.41H88a1.43,1.43,0,0,0,1.42-1.41V36.49A1.39,1.39,0,0,0,89,35.48Z"/><path class="cls-3" d="M101.84,34v4.42a1,1,0,0,1-.34.77,1.4,1.4,0,0,1-.9.28H96.29a1.17,1.17,0,0,1-.91-.39l0-.06a1.36,1.36,0,0,1-.29-.89V33.72a.91.91,0,0,1,.29-.72l0,0a1.39,1.39,0,0,1,.91-.28h4.31a1.16,1.16,0,0,1,.9.38A1.39,1.39,0,0,1,101.84,34Z"/><path class="cls-3" d="M101.84,45.33V69a13.44,13.44,0,0,1-3.08,8.59,1.56,1.56,0,0,1-.16.2,12.18,12.18,0,0,1-3.12,2.68l-.16.1-.39.23-.13.06-.38.2a13,13,0,0,1-3.13,1.15c-.26,0-.51.11-.78.14a17.32,17.32,0,0,1-3.2.19,1.39,1.39,0,0,1-.91-.28.89.89,0,0,1-.33-.73V77.26a2.11,2.11,0,0,1,0-.26,1.27,1.27,0,0,1,.31-.65,1.18,1.18,0,0,1,.91-.37h1A6.89,6.89,0,0,0,92,74.9h0a6.93,6.93,0,0,0,2.65-3,6.83,6.83,0,0,0,.63-2.9V44.55l.13-.13a1.38,1.38,0,0,1,.94-.33h4.4a1,1,0,0,1,.76.33A1.39,1.39,0,0,1,101.84,45.33Z"/><path class="cls-3" d="M35.48,79.09l2-3.14H35.9l-1.2,2.12L33.55,76H31.93l2,3.24L31.79,82.5h1.62l1.29-2.25L36,82.5h1.64Z"/><path class="cls-3" d="M47,76H45.44L43.13,82.5h1.41L45,81.17h2.48l.44,1.33h1.46ZM45.35,80l.87-2.63L47.09,80Z"/><path class="cls-3" d="M59.85,76.75A2.59,2.59,0,0,0,57.8,76H55V82.5h2.7a2.62,2.62,0,0,0,2.13-.87,3.93,3.93,0,0,0,.72-2.56A3.4,3.4,0,0,0,59.85,76.75Zm-2.32,4.62H56.37V77.09h1.26c1,0,1.56.68,1.56,2S58.63,81.37,57.53,81.37Z"/><path class="cls-3" d="M71.62,76.72a3.28,3.28,0,0,0-4.6,0,3.66,3.66,0,0,0-.85,2.55A3.53,3.53,0,0,0,67,81.76a3.33,3.33,0,0,0,4.6,0,3.58,3.58,0,0,0,.85-2.49A3.7,3.7,0,0,0,71.62,76.72Zm-1,4.2a1.73,1.73,0,0,1-2.62,0,2.56,2.56,0,0,1-.47-1.66,2.73,2.73,0,0,1,.47-1.7,1.7,1.7,0,0,1,2.62,0,2.78,2.78,0,0,1,.47,1.71A2.62,2.62,0,0,1,70.62,80.92Z"/><path class="cls-3" d="M81,78.64,83.57,76H81.83l-2.51,2.72V76H78V82.5h1.36V80.3l.67-.68,2,2.88h1.78Z"/></g></g></svg>