<svg xmlns="http://www.w3.org/2000/svg" viewBox="0 0 141.73 105.84"><defs><style>.cls-1{fill:#fff;}</style></defs><title>Asset 9582sd4sd5sdsfgh</title><g id="Layer_2" data-name="Layer 2"><g id="Layer_1-2" data-name="Layer 1"><path class="cls-1" d="M141.3,28.91a1.52,1.52,0,0,0-1.16-.47H109L80.88.49A1.49,1.49,0,0,0,79.73,0,1.65,1.65,0,0,0,78.6.52L74.78,4.34a1.15,1.15,0,0,0-.36,1A1.86,1.86,0,0,0,75,6.38L97.26,28.44H44.47L66.74,6.38a1.88,1.88,0,0,0,.58-1.07,1.18,1.18,0,0,0-.36-1L63.13.52A1.65,1.65,0,0,0,62,0a1.49,1.49,0,0,0-1.15.49l-28.16,28H4.16l-.16,0-2.41,0a1.82,1.82,0,0,0-1.16.35,1.17,1.17,0,0,0-.43.94v5.41a1.72,1.72,0,0,0,.43,1.17,1.51,1.51,0,0,0,1.16.46h9.77v51.5a17.36,17.36,0,0,0,13.51,16.9,17.94,17.94,0,0,0,2.77.39c.34,0,.69,0,1,0h7.45a1.76,1.76,0,0,0,1.16-.35,1.12,1.12,0,0,0,.43-.93V98.9a1.68,1.68,0,0,0-.43-1.17,1.52,1.52,0,0,0-1.16-.47H28.68a9,9,0,0,1-9-9V36.77H140.14a1.82,1.82,0,0,0,1.16-.34,1.14,1.14,0,0,0,.43-.94V30.08A1.68,1.68,0,0,0,141.3,28.91Z"/><path class="cls-1" d="M70.93,86.34,71,71.74q0-5.08-2.23-7.29a8.69,8.69,0,0,0-6.4-2.21H35.7a12.93,12.93,0,0,1,1.7-4.57A8.46,8.46,0,0,1,40,55.06a8.57,8.57,0,0,1,3.11-1.2,20.12,20.12,0,0,1,3.38-.29c.72,0,1.43,0,2.14,0s1.41,0,2.13,0A1.84,1.84,0,0,0,52,53.12a1.68,1.68,0,0,0,.56-1.29V46.9A1.56,1.56,0,0,0,52,45.63a2.63,2.63,0,0,0-1.44-.58,34.5,34.5,0,0,0-3.63-.22A21,21,0,0,0,39.79,46a18.55,18.55,0,0,0-5.69,3.25,17.46,17.46,0,0,0-1.74,1.7A18.34,18.34,0,0,0,30,54.26a20.29,20.29,0,0,0-2.19,6.53c0,1.37,0,2.74,0,4.09s0,2.72,0,4.1a1.81,1.81,0,0,0,1.81,1.81h32.7V79.6H26.45a1.71,1.71,0,0,0-1.26.54,1.74,1.74,0,0,0-.55,1.27v4.93a1.76,1.76,0,0,0,.55,1.31,1.72,1.72,0,0,0,1.26.55H69.12a1.74,1.74,0,0,0,1.29-.55A1.81,1.81,0,0,0,70.93,86.34Z"/><path class="cls-1" d="M101.1,65.93q0-5-2.21-7.27a8.61,8.61,0,0,0-6.38-2.22H79.6a1.76,1.76,0,0,0-1.32.54,1.81,1.81,0,0,0-.53,1.3v4.93a1.7,1.7,0,0,0,.53,1.25A1.76,1.76,0,0,0,79.6,65H92.51V79.6H76.63a1.83,1.83,0,0,0-1.85,1.81v4.93a1.84,1.84,0,0,0,1.85,1.86H92.51A8.58,8.58,0,0,0,98.89,86c1.47-1.48,2.21-3.92,2.21-7.3Z"/><path class="cls-1" d="M113.93,87.88a1.67,1.67,0,0,0,.55-1.28V46.72a1.72,1.72,0,0,0-.55-1.3,1.71,1.71,0,0,0-1.27-.55h-4.93a1.86,1.86,0,0,0-1.84,1.85V86.6a1.69,1.69,0,0,0,.54,1.28,1.77,1.77,0,0,0,1.3.53h4.93A1.72,1.72,0,0,0,113.93,87.88Z"/><path class="cls-1" d="M128.78,41.82h-5.51a1.77,1.77,0,0,0-1.16.36l-.07.06a1.27,1.27,0,0,0-.37.93v5.64A1.81,1.81,0,0,0,122,50l.07.08a1.47,1.47,0,0,0,1.16.49h5.51a1.77,1.77,0,0,0,1.16-.36,1.21,1.21,0,0,0,.43-1V43.53a1.8,1.8,0,0,0-.43-1.22A1.5,1.5,0,0,0,128.78,41.82Z"/><path class="cls-1" d="M129,56.44h-5.62a1.76,1.76,0,0,0-1.21.43A.87.87,0,0,0,122,57V88.27a8.86,8.86,0,0,1-.8,3.71,9.06,9.06,0,0,1-3.4,3.9h0a9,9,0,0,1-4.77,1.38h-1.28a1.51,1.51,0,0,0-1.16.46,1.65,1.65,0,0,0-.4.84,1.76,1.76,0,0,0,0,.33v5.41a1.17,1.17,0,0,0,.43.94,1.82,1.82,0,0,0,1.16.35,22.34,22.34,0,0,0,4.1-.24c.34,0,.67-.11,1-.19a16.51,16.51,0,0,0,4-1.46l.48-.26.17-.08.49-.29.21-.12a15.89,15.89,0,0,0,4-3.43,2.47,2.47,0,0,0,.21-.27,17.25,17.25,0,0,0,3.94-11V58a1.77,1.77,0,0,0-.36-1.16A1.19,1.19,0,0,0,129,56.44Z"/><polygon class="cls-1" points="47.97 97.23 45.95 97.23 44.43 99.95 42.95 97.23 40.88 97.23 43.41 101.38 40.7 105.61 42.78 105.61 44.43 102.74 46.06 105.61 48.15 105.61 45.41 101.25 47.97 97.23"/><path class="cls-1" d="M58.17,97.23l-3,8.38H57l.56-1.7h3.18l.56,1.7h1.86l-3-8.38Zm-.12,5.24,1.11-3.37,1.13,3.37Z"/><path class="cls-1" d="M74,97.23H70.41v8.38h3.45a3.36,3.36,0,0,0,2.73-1.11,5,5,0,0,0,.93-3.28,4.38,4.38,0,0,0-.9-3A3.31,3.31,0,0,0,74,97.23Zm-.34,6.94H72.16V98.69h1.62c1.32,0,2,.87,2,2.6C75.77,103.21,75.06,104.17,73.65,104.17Z"/><path class="cls-1" d="M88.73,97a3.79,3.79,0,0,0-2.94,1.21,4.7,4.7,0,0,0-1.09,3.26,4.57,4.57,0,0,0,1.09,3.19,4.29,4.29,0,0,0,5.89,0,4.57,4.57,0,0,0,1.09-3.19,4.7,4.7,0,0,0-1.09-3.26A3.75,3.75,0,0,0,88.73,97Zm1.67,6.59a2.23,2.23,0,0,1-3.35,0,3.34,3.34,0,0,1-.6-2.14,3.47,3.47,0,0,1,.61-2.18,2.18,2.18,0,0,1,3.34,0,3.51,3.51,0,0,1,.6,2.18A3.4,3.4,0,0,1,90.4,103.6Z"/><polygon class="cls-1" points="106.99 97.23 104.75 97.23 101.54 100.71 101.54 97.23 99.81 97.23 99.81 105.61 101.54 105.61 101.54 102.8 102.4 101.93 104.93 105.61 107.2 105.61 103.64 100.67 106.99 97.23"/></g></g></svg>