<svg xmlns="http://www.w3.org/2000/svg" viewBox="0 0 142.23 106.34"><defs><style>.cls-1{fill:none;stroke:#fff;stroke-miterlimit:10;stroke-width:0.5px;}</style></defs><title>Asset 10582sd4sd5sdsfgh</title><g id="Layer_2" data-name="Layer 2"><g id="Layer_1-2" data-name="Layer 1"><path class="cls-1" d="M141.55,29.16a1.52,1.52,0,0,0-1.16-.47h-31.1L81.13.74A1.49,1.49,0,0,0,80,.25a1.65,1.65,0,0,0-1.13.52L75,4.59a1.15,1.15,0,0,0-.36,1,1.86,1.86,0,0,0,.57,1.07L97.51,28.69H44.72L67,6.63a1.88,1.88,0,0,0,.58-1.07,1.18,1.18,0,0,0-.36-1L63.38.77A1.65,1.65,0,0,0,62.25.25,1.49,1.49,0,0,0,61.1.74l-28.16,28H4.41l-.16,0-2.41,0A1.82,1.82,0,0,0,.68,29,1.17,1.17,0,0,0,.25,30v5.41a1.72,1.72,0,0,0,.43,1.17A1.51,1.51,0,0,0,1.84,37h9.77v51.5a17.36,17.36,0,0,0,13.51,16.9,17.94,17.94,0,0,0,2.77.39c.34,0,.69,0,1,0h7.45a1.76,1.76,0,0,0,1.16-.35,1.12,1.12,0,0,0,.43-.93V99.15A1.68,1.68,0,0,0,37.54,98a1.52,1.52,0,0,0-1.16-.47H28.93a9,9,0,0,1-9-9V37H140.39a1.82,1.82,0,0,0,1.16-.34,1.14,1.14,0,0,0,.43-.94V30.33A1.68,1.68,0,0,0,141.55,29.16Z"/><path class="cls-1" d="M71.18,86.59,71.26,72q0-5.08-2.23-7.29a8.69,8.69,0,0,0-6.4-2.21H36a12.93,12.93,0,0,1,1.7-4.57,8.46,8.46,0,0,1,2.58-2.61,8.57,8.57,0,0,1,3.11-1.2,20.12,20.12,0,0,1,3.38-.29c.72,0,1.43,0,2.14,0s1.41,0,2.13,0a1.84,1.84,0,0,0,1.29-.53,1.68,1.68,0,0,0,.56-1.29V47.15a1.56,1.56,0,0,0-.62-1.27,2.63,2.63,0,0,0-1.44-.58,34.5,34.5,0,0,0-3.63-.22A21,21,0,0,0,40,46.24a18.55,18.55,0,0,0-5.69,3.25,17.46,17.46,0,0,0-1.74,1.7,18.34,18.34,0,0,0-2.34,3.32A20.29,20.29,0,0,0,28.08,61c0,1.37,0,2.74,0,4.09s0,2.72,0,4.1A1.81,1.81,0,0,0,29.93,71h32.7v8.81H26.7a1.71,1.71,0,0,0-1.26.54,1.74,1.74,0,0,0-.55,1.27v4.93a1.76,1.76,0,0,0,.55,1.31,1.72,1.72,0,0,0,1.26.55H69.37a1.74,1.74,0,0,0,1.29-.55A1.81,1.81,0,0,0,71.18,86.59Z"/><path class="cls-1" d="M101.35,66.18q0-5-2.21-7.27a8.61,8.61,0,0,0-6.38-2.22H79.85a1.76,1.76,0,0,0-1.32.54,1.81,1.81,0,0,0-.53,1.3v4.93a1.7,1.7,0,0,0,.53,1.25,1.76,1.76,0,0,0,1.32.53H92.76V79.85H76.88A1.83,1.83,0,0,0,75,81.66v4.93a1.84,1.84,0,0,0,1.85,1.86H92.76a8.58,8.58,0,0,0,6.38-2.24c1.47-1.48,2.21-3.92,2.21-7.3Z"/><path class="cls-1" d="M114.18,88.13a1.67,1.67,0,0,0,.55-1.28V47a1.72,1.72,0,0,0-.55-1.3,1.71,1.71,0,0,0-1.27-.55H108A1.86,1.86,0,0,0,106.14,47V86.85a1.69,1.69,0,0,0,.54,1.28,1.77,1.77,0,0,0,1.3.53h4.93A1.72,1.72,0,0,0,114.18,88.13Z"/><path class="cls-1" d="M129,42.07h-5.51a1.77,1.77,0,0,0-1.16.36l-.07.06a1.27,1.27,0,0,0-.37.93v5.64a1.81,1.81,0,0,0,.37,1.14l.07.08a1.47,1.47,0,0,0,1.16.49H129a1.77,1.77,0,0,0,1.16-.36,1.21,1.21,0,0,0,.43-1V43.78a1.8,1.8,0,0,0-.43-1.22A1.5,1.5,0,0,0,129,42.07Z"/><path class="cls-1" d="M129.28,56.69h-5.62a1.76,1.76,0,0,0-1.21.43.87.87,0,0,0-.16.17V88.52a8.86,8.86,0,0,1-.8,3.71,9.06,9.06,0,0,1-3.4,3.9h0a9,9,0,0,1-4.77,1.38H112a1.51,1.51,0,0,0-1.16.46,1.65,1.65,0,0,0-.4.84,1.76,1.76,0,0,0,0,.33v5.41a1.17,1.17,0,0,0,.43.94,1.82,1.82,0,0,0,1.16.35,22.34,22.34,0,0,0,4.1-.24c.34,0,.67-.11,1-.19a16.51,16.51,0,0,0,4-1.46l.48-.26.17-.08.49-.29.21-.12a15.89,15.89,0,0,0,4-3.43,2.47,2.47,0,0,0,.21-.27,17.25,17.25,0,0,0,3.94-11V58.28a1.77,1.77,0,0,0-.36-1.16A1.19,1.19,0,0,0,129.28,56.69Z"/><polygon class="cls-1" points="48.22 97.48 46.2 97.48 44.68 100.2 43.2 97.48 41.13 97.48 43.66 101.63 40.95 105.86 43.03 105.86 44.68 102.99 46.31 105.86 48.4 105.86 45.66 101.5 48.22 97.48"/><path class="cls-1" d="M58.42,97.48l-3,8.38h1.79l.56-1.7H61l.56,1.7h1.86l-3-8.38Zm-.12,5.24,1.11-3.37,1.13,3.37Z"/><path class="cls-1" d="M74.24,97.48H70.66v8.38h3.45a3.36,3.36,0,0,0,2.73-1.11,5,5,0,0,0,.93-3.28,4.38,4.38,0,0,0-.9-3A3.31,3.31,0,0,0,74.24,97.48Zm-.34,6.94H72.41V98.94H74c1.32,0,2,.87,2,2.6C76,103.46,75.31,104.42,73.9,104.42Z"/><path class="cls-1" d="M89,97.26A3.79,3.79,0,0,0,86,98.47,4.7,4.7,0,0,0,85,101.73,4.57,4.57,0,0,0,86,104.92a4.29,4.29,0,0,0,5.89,0A4.57,4.57,0,0,0,93,101.73a4.7,4.7,0,0,0-1.09-3.26A3.75,3.75,0,0,0,89,97.26Zm1.67,6.59a2.23,2.23,0,0,1-3.35,0,3.34,3.34,0,0,1-.6-2.14,3.47,3.47,0,0,1,.61-2.18,2.18,2.18,0,0,1,3.34,0,3.51,3.51,0,0,1,.6,2.18A3.4,3.4,0,0,1,90.65,103.85Z"/><polygon class="cls-1" points="107.24 97.48 105 97.48 101.79 100.96 101.79 97.48 100.06 97.48 100.06 105.86 101.79 105.86 101.79 103.05 102.65 102.18 105.18 105.86 107.45 105.86 103.89 100.92 107.24 97.48"/></g></g></svg>