<svg xmlns="http://www.w3.org/2000/svg" viewBox="0 0 110.72 82.68"><defs><style>.cls-1{fill:#223142;}.cls-2{fill:#87adc1;}.cls-3{fill:#46677a;}</style></defs><title>Asset 10582sd45sdsfgh</title><g id="Layer_2" data-name="Layer 2"><g id="Layer_1-2" data-name="Layer 1"><path class="cls-1" d="M55.41,67.45,55.47,56q0-4-1.74-5.7a6.81,6.81,0,0,0-5-1.72H27.88a10.17,10.17,0,0,1,1.34-3.57,6.53,6.53,0,0,1,2-2,6.87,6.87,0,0,1,2.43-.94,15.51,15.51,0,0,1,2.64-.22c.56,0,1.12,0,1.67,0s1.1,0,1.67,0a1.48,1.48,0,0,0,1-.41,1.34,1.34,0,0,0,.43-1V36.64a1.22,1.22,0,0,0-.48-1,2,2,0,0,0-1.13-.46A26.55,26.55,0,0,0,36.64,35a16.42,16.42,0,0,0-5.56.91,14.38,14.38,0,0,0-4.44,2.53,13.24,13.24,0,0,0-1.36,1.34,13.41,13.41,0,0,0-1.83,2.59,15.51,15.51,0,0,0-1.71,5.1c0,1.07,0,2.14,0,3.2s0,2.12,0,3.2a1.33,1.33,0,0,0,.43,1,1.38,1.38,0,0,0,1,.41H48.73v6.88H20.66a1.37,1.37,0,0,0-1,.42,1.39,1.39,0,0,0-.42,1v3.85a1.4,1.4,0,0,0,.42,1,1.38,1.38,0,0,0,1,.43H54a1.35,1.35,0,0,0,1-.43A1.4,1.4,0,0,0,55.41,67.45Z"/><path class="cls-1" d="M79,51.5q0-3.93-1.73-5.67a6.73,6.73,0,0,0-5-1.74H62.18a1.42,1.42,0,0,0-1.44,1.44v3.85a1.32,1.32,0,0,0,.41,1,1.41,1.41,0,0,0,1,.41H72.26V62.18H59.86a1.36,1.36,0,0,0-1,.42,1.38,1.38,0,0,0-.41,1v3.85a1.4,1.4,0,0,0,.41,1,1.37,1.37,0,0,0,1,.43h12.4a6.74,6.74,0,0,0,5-1.75Q79,65.41,79,61.45Z"/><path class="cls-1" d="M89,68.65a1.34,1.34,0,0,0,.43-1V36.49a1.39,1.39,0,0,0-.43-1,1.33,1.33,0,0,0-1-.43H84.16a1.36,1.36,0,0,0-1,.43,1.39,1.39,0,0,0-.43,1V67.65a1.34,1.34,0,0,0,.43,1,1.38,1.38,0,0,0,1,.41H88A1.34,1.34,0,0,0,89,68.65Z"/><path class="cls-1" d="M101.5,33.05a1.16,1.16,0,0,0-.9-.38H96.29a1.39,1.39,0,0,0-.91.28l0,0a.91.91,0,0,0-.29.72v4.41a1.36,1.36,0,0,0,.29.89l0,.06a1.17,1.17,0,0,0,.91.39h4.31a1.4,1.4,0,0,0,.9-.28,1,1,0,0,0,.34-.77V34A1.39,1.39,0,0,0,101.5,33.05Z"/><path class="cls-1" d="M100.8,44.09H96.4a1.38,1.38,0,0,0-.94.33.71.71,0,0,0-.12.13V69a7.08,7.08,0,0,1-3.29,5.94s0,0,0,0A6.89,6.89,0,0,1,88.31,76h-1a1.15,1.15,0,0,0-.9.37,1.21,1.21,0,0,0-.32.65,2.11,2.11,0,0,0,0,.26v4.22a.87.87,0,0,0,.34.73,1.35,1.35,0,0,0,.9.28,17.32,17.32,0,0,0,3.2-.19c.27,0,.52-.09.78-.14A13,13,0,0,0,94.42,81l.38-.2.13-.06.39-.23.16-.1a12.34,12.34,0,0,0,3.12-2.67l.16-.21A13.44,13.44,0,0,0,101.84,69V45.33a1.39,1.39,0,0,0-.28-.91A1,1,0,0,0,100.8,44.09Z"/><polygon class="cls-1" points="37.47 75.95 35.9 75.95 34.7 78.07 33.55 75.95 31.93 75.95 33.91 79.19 31.79 82.5 33.41 82.5 34.7 80.25 35.98 82.5 37.62 82.5 35.48 79.09 37.47 75.95"/><path class="cls-1" d="M45.44,76,43.13,82.5h1.41L45,81.17h2.48l.44,1.33h1.46L47,76ZM45.35,80l.87-2.63L47.09,80Z"/><path class="cls-1" d="M57.8,76H55V82.5h2.7a2.61,2.61,0,0,0,2.13-.87,3.93,3.93,0,0,0,.72-2.56,3.4,3.4,0,0,0-.7-2.32A2.59,2.59,0,0,0,57.8,76Zm-.27,5.42H56.37V77.09h1.26c1,0,1.56.68,1.56,2S58.64,81.37,57.53,81.37Z"/><path class="cls-1" d="M69.31,75.78a2.94,2.94,0,0,0-2.29.94,3.66,3.66,0,0,0-.85,2.55A3.53,3.53,0,0,0,67,81.76a3.33,3.33,0,0,0,4.6,0,3.58,3.58,0,0,0,.85-2.49,3.7,3.7,0,0,0-.85-2.55A3,3,0,0,0,69.31,75.78Zm1.31,5.14a1.73,1.73,0,0,1-2.62,0,2.56,2.56,0,0,1-.47-1.66,2.73,2.73,0,0,1,.47-1.7,1.7,1.7,0,0,1,2.62,0,2.78,2.78,0,0,1,.47,1.71A2.62,2.62,0,0,1,70.62,80.92Z"/><polygon class="cls-1" points="83.58 75.95 81.83 75.95 79.32 78.67 79.32 75.95 77.96 75.95 77.96 82.5 79.32 82.5 79.32 80.3 79.99 79.62 81.97 82.5 83.74 82.5 80.96 78.64 83.58 75.95"/><path class="cls-2" d="M49.32.41A1.32,1.32,0,0,0,48.43,0a1.22,1.22,0,0,0-.9.38l-23,22.8,4.58,4.58L52.13,5a1.36,1.36,0,0,0,.45-.83.89.89,0,0,0-.28-.76Z"/><path class="cls-2" d="M63.18.38a1.19,1.19,0,0,0-.9-.38,1.32,1.32,0,0,0-.88.41l-3,3a.89.89,0,0,0-.28.76,1.46,1.46,0,0,0,.45.83l23,22.78,4.58-4.58Z"/><path class="cls-3" d="M110.38,22.59a1.17,1.17,0,0,0-.91-.37H1.24a1.42,1.42,0,0,0-.9.27.9.9,0,0,0-.34.73v4.23a1.29,1.29,0,0,0,.34.91,1.2,1.2,0,0,0,.9.37H8.87V69A13.57,13.57,0,0,0,19.42,82.16a14.17,14.17,0,0,0,2.17.3l4.83,0h1.8a1.37,1.37,0,0,0,.91-.27.9.9,0,0,0,.34-.73V77.26a1.34,1.34,0,0,0-.34-.92,1.2,1.2,0,0,0-.91-.36H22.4a7,7,0,0,1-7-7V28.73h94.09a1.43,1.43,0,0,0,.91-.27.93.93,0,0,0,.34-.74V23.5A1.3,1.3,0,0,0,110.38,22.59Z"/></g></g></svg>