<svg width="30" height="30" viewBox="0 0 30 30" fill="none" xmlns="http://www.w3.org/2000/svg">
<path d="M7.7063 15.3924L10.6796 12.4196L11.4825 13.2225L8.50974 16.1953L7.7063 15.3924Z" fill="#223142"/>
<path d="M11.0063 17.9171L13.5929 15.3319L12.789 14.5289L9.81616 17.5013L10.2319 17.9171L10.6191 18.3042L11.9255 19.6106L13.6196 17.9171H11.0063Z" fill="#223142"/>
<path d="M25.6028 17.9171H15.2261L12.7295 20.4146L14.0354 21.721L17.0087 18.7472L17.8117 19.5502L14.8384 22.5239L16.1453 23.8303L19.1181 20.8566L19.9211 21.6605L16.9482 24.6333L18.2542 25.9397L21.2275 22.9669L22.0304 23.7689L19.0961 26.7047C19.3308 26.8354 19.6016 26.8861 19.8677 26.8491C20.1337 26.8121 20.3805 26.6896 20.5707 26.4999L26.4995 20.5711C26.6149 20.4558 26.7064 20.3188 26.7688 20.1681C26.8313 20.0174 26.8634 19.8558 26.8634 19.6927C26.8634 19.5295 26.8313 19.368 26.7688 19.2173C26.7064 19.0665 26.6149 18.9296 26.4995 18.8142L25.6028 17.9171Z" fill="#223142"/>
<path d="M28.5873 18.5485L16.0421 6.00331C15.7252 5.68644 15.3095 5.528 14.8946 5.528C14.4798 5.528 14.064 5.68644 13.7471 6.00331L12.9479 6.80253C13.6665 6.08487 14.1859 5.44034 13.4668 4.72222L11.8852 3.14065C11.1812 2.43659 10.5488 2.92175 9.84805 3.61737C9.08211 3.26065 7.62054 4.16909 6.04929 3.91784C5.74179 3.86769 5.32414 3.09753 4.22211 1.99503C2.90023 0.674092 1.97726 0.747217 1.36179 1.36315C0.747263 1.97769 0.673201 2.90019 1.99461 4.22253C3.09711 5.32409 3.86773 5.74222 3.91742 6.04972C4.16773 7.6219 3.25929 9.083 3.61648 9.84847C2.92133 10.5492 2.4357 11.1816 3.13976 11.8852L4.72086 13.4672C5.43945 14.1849 6.08398 13.666 6.80258 12.9464L6.00242 13.7466C5.8516 13.8973 5.73196 14.0762 5.65033 14.2731C5.5687 14.47 5.52668 14.6811 5.52668 14.8943C5.52668 15.1075 5.5687 15.3186 5.65033 15.5155C5.73196 15.7125 5.8516 15.8914 6.00242 16.0421L18.5485 28.5872C18.6989 28.7381 18.8777 28.8578 19.0746 28.9394C19.2714 29.0209 19.4825 29.0628 19.6955 29.0625C20.1113 29.0625 20.5266 28.9036 20.843 28.5863L28.5868 20.8425C28.7375 20.692 28.8571 20.5132 28.9388 20.3164C29.0204 20.1196 29.0624 19.9086 29.0625 19.6956C29.0625 19.4825 29.0206 19.2716 28.939 19.0747C28.8575 18.8779 28.738 18.6991 28.5873 18.5485ZM11.1029 3.04081L13.5545 5.49237L13.1973 5.84956L10.7457 3.398L11.1029 3.04081ZM9.8382 4.30503L12.2898 6.75659L11.9316 7.11472L9.48008 4.66315L9.8382 4.30503ZM8.57211 5.57112L11.0237 8.02269L10.6655 8.37987L8.21398 5.92831L8.57211 5.57112ZM7.30695 6.83628L9.75851 9.28784L9.40133 9.64503L6.94976 7.19347L7.30695 6.83628ZM6.04179 8.10097L8.49429 10.5525L8.13617 10.9107L5.68461 8.45909L6.04179 8.10097ZM5.60492 13.4419L3.15336 10.9903L3.51101 10.6313L5.96258 13.0828L5.60492 13.4419ZM4.41851 9.72425L4.77664 9.36612L7.2282 11.8186L6.87008 12.1767L4.41851 9.72425ZM27.9235 20.1802L20.1798 27.9244C20.0504 28.0538 19.8784 28.125 19.6955 28.125C19.5127 28.125 19.3407 28.0538 19.2118 27.9244L6.6657 15.3788C6.53679 15.2494 6.46508 15.0778 6.46508 14.8946C6.46508 14.7113 6.53633 14.5392 6.66617 14.4094L14.4099 6.66565C14.5393 6.53628 14.7118 6.46503 14.8946 6.46503C15.0774 6.46503 15.2499 6.53628 15.3793 6.66565L27.9249 19.2108C27.9886 19.2745 28.039 19.3501 28.0734 19.4334C28.1077 19.5166 28.1254 19.6058 28.1252 19.6958C28.1251 19.7858 28.1072 19.875 28.0726 19.9581C28.038 20.0412 27.9873 20.1167 27.9235 20.1802Z" fill="#223142"/>
</svg>
