<svg width="21" height="25" viewBox="0 0 21 25" fill="none" xmlns="http://www.w3.org/2000/svg">
<path d="M16.8315 2.59233C14.2746 0.730675 12.4548 0.771175 11.7636 0.883225C11.6688 0.899622 11.5782 0.934677 11.4971 0.986357C11.416 1.03804 11.346 1.10531 11.2911 1.18428L5.05406 9.78918L1.99901 14.0052C1.62538 14.521 1.40879 15.1337 1.37531 15.7697L0.975713 23.3621C0.968901 23.488 0.993706 23.6137 1.04787 23.7276C1.10203 23.8415 1.18383 23.94 1.28581 24.0142C1.38779 24.0884 1.50672 24.1359 1.63176 24.1524C1.7568 24.1689 1.88398 24.1539 2.00171 24.1086L9.09731 21.3951C9.69536 21.1656 10.2151 20.7674 10.5904 20.249L13.0798 16.8132L19.8784 7.43208C19.9378 7.35069 19.9804 7.25825 20.0036 7.16018C20.0268 7.06212 20.0301 6.9604 20.0134 6.86102C19.9 6.15093 19.356 4.42833 16.8315 2.59233ZM9.11891 19.8777L6.36086 20.9429C6.30881 20.9634 6.25148 20.9663 6.19762 20.9512C6.14376 20.9361 6.09631 20.9038 6.06251 20.8592C5.64874 20.3278 5.15987 19.8594 4.61126 19.4687C4.07034 19.0681 3.47478 18.7471 2.84276 18.5156C2.79026 18.4965 2.74534 18.4609 2.71469 18.4142C2.68404 18.3675 2.6693 18.3121 2.67266 18.2564L2.83736 15.3053L3.57851 14.286C3.57851 14.286 5.23766 14.0579 7.40306 15.6333C9.56576 17.2074 9.86141 18.8571 9.86141 18.8571L9.11891 19.8777Z" fill="#223142"/>
</svg>
