<svg width="19" height="30" viewBox="0 0 19 30" fill="none" xmlns="http://www.w3.org/2000/svg">
<path d="M16.875 11.25L15 28.125C14.9023 28.5938 14.707 29.0234 14.4141 29.4141C14.1211 29.8047 13.7695 30 13.3594 30H5.39062C4.98047 30 4.62402 29.8047 4.32129 29.4141C4.01855 29.0234 3.82812 28.5938 3.75 28.125L1.875 11.25C1.36719 11.25 0.927734 11.0693 0.556641 10.708C0.185547 10.3467 0 9.90723 0 9.38965C0 8.87207 0.185547 8.42773 0.556641 8.05664C0.927734 7.68555 1.36719 7.5 1.875 7.5H11.1035L12.7441 0.9375C12.8223 0.605469 12.998 0.351562 13.2715 0.175781C13.5449 0 13.8379 -0.0439453 14.1504 0.0439453C14.4629 0.131836 14.6973 0.327148 14.8535 0.629883C15.0098 0.932617 15.0488 1.25 14.9707 1.58203L13.5059 7.5H16.875C17.3828 7.5 17.8223 7.68555 18.1934 8.05664C18.5645 8.42773 18.75 8.87207 18.75 9.38965C18.75 9.90723 18.5645 10.3467 18.1934 10.708C17.8223 11.0693 17.3828 11.25 16.875 11.25Z" fill="#223142"/>
</svg>
