<svg width="26" height="28" viewBox="0 0 26 28" fill="none" xmlns="http://www.w3.org/2000/svg">
<path d="M25.5 9.25C24.53 9.2743 23.5714 9.03681 22.725 8.5625C22.0489 8.17451 21.2792 7.97991 20.5 8V6.75C21.4699 6.7257 22.4285 6.96319 23.275 7.4375C23.951 7.82549 24.7207 8.02009 25.5 8V9.25ZM25.5 5.5C24.7207 5.52009 23.951 5.32549 23.275 4.9375C22.4285 4.46319 21.4699 4.2257 20.5 4.25V5.5C21.2792 5.47991 22.0489 5.67451 22.725 6.0625C23.5714 6.53681 24.53 6.7743 25.5 6.75V5.5ZM25.5 10.5C24.7207 10.5201 23.951 10.3255 23.275 9.9375C22.4285 9.46319 21.4699 9.2257 20.5 9.25V10.5C21.2792 10.4799 22.0489 10.6745 22.725 11.0625C23.5714 11.5368 24.53 11.7743 25.5 11.75V10.5ZM10.5 13.9125C13.4516 13.3416 16.3721 12.6198 19.25 11.75V3C19.25 3 11.125 0.5 7.37495 0.5C5.70557 0.504699 4.09493 1.11665 2.8436 2.22165C1.59228 3.32665 0.785753 4.8492 0.574548 6.50517C0.363343 8.16114 0.761885 9.83739 1.6958 11.2211C2.62972 12.6048 4.03519 13.6014 5.64995 14.025L6.74995 21.75H7.99995C8.04994 22.3458 8.24166 22.921 8.55913 23.4276C8.8766 23.9343 9.3106 24.3577 9.82495 24.6625C10.4049 25.0073 10.8865 25.4953 11.2236 26.0797C11.5606 26.6641 11.7419 27.3254 11.75 28H13C12.9943 27.1389 12.7728 26.2929 12.3557 25.5396C11.9386 24.7862 11.3392 24.1494 10.6125 23.6875C9.73745 23 9.24995 22.5375 9.24995 21.75H10.5V13.9125ZM7.37495 10.5C6.75689 10.5 6.1527 10.3167 5.63879 9.97334C5.12489 9.62996 4.72435 9.1419 4.48783 8.57089C4.2513 7.99987 4.18942 7.37153 4.31 6.76534C4.43058 6.15915 4.7282 5.60233 5.16524 5.16529C5.60228 4.72825 6.1591 4.43062 6.7653 4.31005C7.37149 4.18947 7.99982 4.25135 8.57084 4.48788C9.14186 4.7244 9.62992 5.12494 9.9733 5.63884C10.3167 6.15275 10.5 6.75693 10.5 7.375C10.5 8.2038 10.1707 8.99866 9.58466 9.58471C8.99861 10.1708 8.20375 10.5 7.37495 10.5Z" fill="#223142"/>
</svg>
