<svg width="29" height="29" viewBox="0 0 29 29" fill="none" xmlns="http://www.w3.org/2000/svg">
<path d="M27.1875 25.375C26.9609 25.375 26.4889 25.054 25.7715 24.4121C25.1484 24.2044 24.7142 24.2233 24.4688 24.4688C24.2233 24.7142 24.2044 25.1484 24.4121 25.7715C25.054 26.4889 25.375 26.9609 25.375 27.1875C25.375 27.6784 25.1956 28.1032 24.8369 28.4619C24.4782 28.8206 24.0487 29 23.5483 29C23.048 29 22.6232 28.8206 22.2739 28.4619C21.9246 28.1032 21.75 27.6784 21.75 27.1875C21.75 26.9609 21.7122 26.7013 21.6367 26.4087C21.5612 26.116 21.3818 25.6676 21.0986 25.0635C20.8154 24.4593 20.5794 23.9637 20.3906 23.5767C20.2018 23.1896 19.8337 22.4391 19.2861 21.3252L17.2471 19.3994C17.2659 19.3617 17.332 19.2484 17.4453 19.0596C17.5586 18.8708 17.6672 18.7008 17.771 18.5498C17.8748 18.3988 17.9928 18.2572 18.125 18.125C18.2572 17.9928 18.394 17.8748 18.5356 17.771C18.6772 17.6672 18.8377 17.5633 19.0171 17.4595C19.1965 17.3556 19.3145 17.2848 19.3711 17.2471L21.3252 19.2861C22.4391 19.8337 23.1896 20.2018 23.5767 20.3906C23.9637 20.5794 24.4593 20.8154 25.0635 21.0986C25.6676 21.3818 26.116 21.5612 26.4087 21.6367C26.7013 21.7122 26.9609 21.75 27.1875 21.75C27.6784 21.75 28.1032 21.9294 28.4619 22.2881C28.8206 22.6468 29 23.0763 29 23.5767C29 24.077 28.8206 24.5018 28.4619 24.8511C28.1032 25.2004 27.6784 25.375 27.1875 25.375ZM17.2188 17.2188C16.9922 17.4453 16.7892 17.7285 16.6099 18.0684C16.4305 18.4082 16.2606 18.6536 16.1001 18.8047C15.9396 18.9557 15.7083 19.0312 15.4062 19.0312C14.5755 19.0312 13.7873 18.9368 13.0415 18.748C12.2957 18.5592 11.6821 18.3374 11.2007 18.0825C10.7192 17.8276 10.1056 17.5256 9.35986 17.1763C8.61409 16.827 7.91081 16.5391 7.25 16.3125C4.49349 15.3874 2.59603 14.3537 1.55762 13.2114C0.519206 12.0692 0 10.3841 0 8.15625C0 5.9095 0.797689 3.98844 2.39307 2.39307C3.98844 0.797689 5.9095 0 8.15625 0C10.3841 0 12.0692 0.519206 13.2114 1.55762C14.3537 2.59603 15.3874 4.49349 16.3125 7.25C16.5768 8.02409 16.9591 8.8973 17.4595 9.86963C17.9598 10.842 18.3468 11.7388 18.6206 12.5601C18.8944 13.3813 19.0312 14.3301 19.0312 15.4062C19.0312 15.6895 18.951 15.9113 18.7905 16.0718C18.63 16.2323 18.3799 16.4116 18.04 16.6099C17.7002 16.8081 17.4264 17.0111 17.2188 17.2188Z" fill="#223142"/>
</svg>
