<svg width="22" height="22" viewBox="0 0 22 22" fill="none" xmlns="http://www.w3.org/2000/svg">
<path d="M13.85 8.6C15.8 8.6 17 5.75 17 3.95C17 2.45 16.25 0.65 14.75 0.65C12.8 0.65 11.6 3.5 11.6 5.3C11.6 6.8 12.35 8.6 13.85 8.6ZM8.14995 8.6C9.64995 8.6 10.4 6.8 10.4 5.3C10.4 3.35 9.19995 0.5 7.24995 0.5C5.74995 0.5 4.99995 2.3 4.99995 3.8C4.84995 5.75 6.04995 8.6 8.14995 8.6ZM19.25 7.1C17.3 7.1 15.95 9.8 15.95 11.75C15.95 13.1 16.55 14.45 17.9 14.45C19.85 14.45 21.1999 11.75 21.1999 9.8C21.1999 8.45 20.45 7.1 19.25 7.1ZM6.19995 11.75C6.19995 9.8 4.69995 7.1 2.89995 7.1C1.54995 7.1 0.949951 8.45 0.949951 9.8C0.949951 11.75 2.44995 14.45 4.24995 14.45C5.59995 14.45 6.19995 13.1 6.19995 11.75ZM11 11.45C7.99995 11.45 3.94995 16.25 3.94995 19.55C3.94995 21.05 4.99995 21.5 6.19995 21.5C7.99995 21.5 9.34995 20.3 11 20.3C12.5 20.3 13.85 21.5 15.5 21.5C16.7 21.5 18.0499 21.2 18.0499 19.55C18.0499 16.25 14 11.45 11 11.45Z" fill="#223142"/>
</svg>
