<svg width="14" height="26" viewBox="0 0 14 26" fill="none" xmlns="http://www.w3.org/2000/svg">
<path d="M12.0001 13.9625C11.5711 13.5272 11.3163 12.9498 11.2841 12.3395C11.2519 11.7291 11.4443 11.1281 11.8251 10.65C12.4868 9.82122 12.9267 8.83769 13.1035 7.79199C13.2802 6.74628 13.188 5.67281 12.8354 4.6726C12.4828 3.67239 11.8815 2.77834 11.0881 2.07462C10.2947 1.3709 9.33526 0.880641 8.30011 0.65C7.87225 0.560505 7.43711 0.510296 7.00011 0.5C5.34251 0.5 3.7528 1.15848 2.58069 2.33058C1.40859 3.50269 0.750111 5.0924 0.750111 6.75C0.756182 8.16987 1.24554 9.54535 2.13761 10.65C2.50621 11.119 2.69495 11.7044 2.66973 12.3004C2.64452 12.8964 2.40701 13.4638 2.00011 13.9C1.16417 14.7838 0.577713 15.8736 0.300607 17.0582C0.0235007 18.2427 0.0656689 19.4796 0.422807 20.6425C0.779944 21.8054 1.43926 22.8528 2.33346 23.6776C3.22765 24.5024 4.3247 25.0752 5.51261 25.3375C6.00092 25.4464 6.4998 25.5009 7.00011 25.5C8.33192 25.4899 9.63212 25.0931 10.7427 24.358C11.8533 23.6229 12.7264 22.581 13.256 21.3589C13.7856 20.1369 13.9488 18.7874 13.7259 17.4743C13.5029 16.1613 12.9034 14.9412 12.0001 13.9625ZM8.25011 4.25C8.49734 4.25 8.73901 4.32331 8.94457 4.46066C9.15014 4.59801 9.31035 4.79324 9.40496 5.02165C9.49957 5.25005 9.52432 5.50139 9.47609 5.74386C9.42786 5.98634 9.30881 6.20907 9.13399 6.38388C8.95918 6.5587 8.73645 6.67775 8.49397 6.72598C8.2515 6.77421 8.00016 6.74946 7.77176 6.65485C7.54335 6.56024 7.34813 6.40002 7.21077 6.19446C7.07342 5.9889 7.00011 5.74723 7.00011 5.5C7.00011 5.16848 7.13181 4.85054 7.36623 4.61612C7.60065 4.3817 7.91859 4.25 8.25011 4.25ZM5.75011 20.5C5.50288 20.5 5.26121 20.4267 5.05565 20.2893C4.85009 20.152 4.68987 19.9568 4.59526 19.7284C4.50065 19.4999 4.4759 19.2486 4.52413 19.0061C4.57236 18.7637 4.69141 18.5409 4.86623 18.3661C5.04104 18.1913 5.26377 18.0723 5.50625 18.024C5.74872 17.9758 6.00006 18.0005 6.22847 18.0951C6.45687 18.1898 6.6521 18.35 6.78945 18.5555C6.9268 18.7611 7.00011 19.0028 7.00011 19.25C7.00011 19.5815 6.86841 19.8995 6.63399 20.1339C6.39957 20.3683 6.08163 20.5 5.75011 20.5ZM7.00011 16.75C7.00011 16.5028 7.07342 16.2611 7.21077 16.0555C7.34813 15.85 7.54335 15.6898 7.77176 15.5951C8.00016 15.5005 8.2515 15.4758 8.49397 15.524C8.73645 15.5722 8.95918 15.6913 9.13399 15.8661C9.30881 16.0409 9.42786 16.2637 9.47609 16.5061C9.52432 16.7486 9.49957 16.9999 9.40496 17.2284C9.31035 17.4568 9.15014 17.652 8.94457 17.7893C8.73901 17.9267 8.49734 18 8.25011 18C7.91859 18 7.60065 17.8683 7.36623 17.6339C7.13181 17.3995 7.00011 17.0815 7.00011 16.75ZM9.50011 21.75C9.25288 21.75 9.01121 21.6767 8.80565 21.5393C8.60009 21.402 8.43987 21.2068 8.34526 20.9784C8.25065 20.7499 8.2259 20.4986 8.27413 20.2561C8.32236 20.0137 8.44141 19.7909 8.61623 19.6161C8.79104 19.4413 9.01377 19.3223 9.25625 19.274C9.49872 19.2258 9.75006 19.2505 9.97847 19.3451C10.2069 19.4398 10.4021 19.6 10.5394 19.8055C10.6768 20.0111 10.7501 20.2528 10.7501 20.5C10.7501 20.8315 10.6184 21.1495 10.384 21.3839C10.1496 21.6183 9.83163 21.75 9.50011 21.75Z" fill="#223142"/>
</svg>
