<?xml version="1.0" encoding="utf-8"?>
<!-- Generator: Adobe Illustrator 23.0.0, SVG Export Plug-In . SVG Version: 6.00 Build 0)  -->
<svg version="1.1" id="Layer_1" xmlns="http://www.w3.org/2000/svg" xmlns:xlink="http://www.w3.org/1999/xlink" x="0px" y="0px"
	 viewBox="0 0 22 22" style="enable-background:new 0 0 22 22;" xml:space="preserve">
<style type="text/css">
	.st0{fill:#FFFFFF;}
</style>
<path class="st0" d="M0.8,22h20.4c0.2,0,0.4-0.1,0.6-0.2c0.2-0.2,0.2-0.4,0.2-0.6V0.8c0-0.2-0.1-0.4-0.2-0.6C21.6,0.1,21.4,0,21.2,0
	H0.8C0.6,0,0.4,0.1,0.2,0.2C0.1,0.4,0,0.6,0,0.8v20.4c0,0.2,0.1,0.4,0.2,0.6C0.4,21.9,0.6,22,0.8,22z M11.8,1.6h8.6v8.6h-8.6V1.6z
	 M11.8,11.8h8.6v8.6h-8.6V11.8z M1.6,1.6h8.6v8.6H1.6V1.6z M1.6,11.8h8.6v8.6H1.6V11.8z"/>
</svg>
