<?xml version="1.0" encoding="utf-8"?>
<!-- Generator: Adobe Illustrator 23.0.0, SVG Export Plug-In . SVG Version: 6.00 Build 0)  -->
<svg version="1.1" id="Layer_1" xmlns="http://www.w3.org/2000/svg" xmlns:xlink="http://www.w3.org/1999/xlink" x="0px" y="0px"
	 viewBox="0 0 8 22" style="enable-background:new 0 0 8 22;" xml:space="preserve">
<style type="text/css">
	.st0{fill:#FFFFFF;}
</style>
<path class="st0" d="M1,22c-0.6,0-1-0.5-1-1v-9c0-0.6,0.4-1,1-1h6c0.6,0,1,0.4,1,1v9c0,0.5-0.4,1-1,1H1z M2,10c-0.5,0-1-0.4-1-1V4.2
	C1,4.2,3,2,3.8,0c1.1,0.7,2.2,1.3,2.7,2.8S7,6.7,7,9c0,0.6-0.4,1-1,1H2z"/>
</svg>
