<?xml version="1.0" encoding="utf-8"?>
<!-- Generator: Adobe Illustrator 23.0.0, SVG Export Plug-In . SVG Version: 6.00 Build 0)  -->
<svg version="1.1" id="Layer_1" xmlns="http://www.w3.org/2000/svg" xmlns:xlink="http://www.w3.org/1999/xlink" x="0px" y="0px"
	 viewBox="0 0 29 20" style="enable-background:new 0 0 29 20;" xml:space="preserve">
<style type="text/css">
	.st0{fill:#FFFFFF;}
</style>
<path class="st0" d="M22.4,18.1c1.1,0,2-0.8,2-1.9s-0.9-1.9-2-1.9c-1.1,0-2,0.8-2,1.9S21.3,18.1,22.4,18.1z M24.4,6.9h-3.3V10H27
	L24.4,6.9z M6.6,18.1c1.1,0,2-0.8,2-1.9s-0.9-1.9-2-1.9s-2,0.8-2,1.9S5.5,18.1,6.6,18.1z M25,5l4,5v6.2h-2.6c0,2.1-1.8,3.8-4,3.8
	s-4-1.7-4-3.8h-7.9c0,2.1-1.8,3.8-4,3.8s-4-1.7-4-3.8H0V2.5C0,1.1,1.2,0,2.6,0h18.5v5H25z M2.6,2.5v11.3h1c0.7-0.8,1.8-1.3,3-1.3
	s2.2,0.5,3,1.3h8.9V2.5H2.6z M11.9,3.7l4.6,4.4l-4.6,4.4V9.4H5.3V6.9h6.6V3.7z"/>
</svg>
