<?xml version="1.0" encoding="utf-8"?>
<!-- Generator: Adobe Illustrator 23.0.0, SVG Export Plug-In . SVG Version: 6.00 Build 0)  -->
<svg version="1.1" id="Layer_1" xmlns="http://www.w3.org/2000/svg" xmlns:xlink="http://www.w3.org/1999/xlink" x="0px" y="0px"
	 viewBox="0 0 22 25" style="enable-background:new 0 0 22 25;" xml:space="preserve">
<style type="text/css">
	.st0{fill:#FFFFFF;}
</style>
<path class="st0" d="M11.4,24.5C5.6,24.5,0.9,19.8,0.9,14c0-3.7,1.9-7,5.1-9C6.1,5,6.3,4.9,6.5,4.9c0.2,0,0.4,0,0.6,0S7.4,5,7.5,5.1
	c0.2,0.1,0.3,0.3,0.4,0.4C8,5.7,8.1,5.9,8.1,6.1c0,0.2,0,0.4,0,0.6C8,6.8,8,7,7.8,7.2S7.6,7.4,7.4,7.5C5.1,8.9,3.8,11.4,3.8,14
	c0,4.2,3.4,7.6,7.6,7.6c4.2,0,7.6-3.4,7.6-7.6c0-2.7-1.5-5.3-3.8-6.6c-0.2-0.1-0.3-0.2-0.4-0.4c-0.1-0.1-0.2-0.3-0.3-0.5
	c-0.1-0.2-0.1-0.4,0-0.6c0-0.2,0.1-0.4,0.2-0.5s0.2-0.3,0.4-0.4c0.2-0.1,0.3-0.2,0.5-0.2c0.2,0,0.4-0.1,0.6,0c0.2,0,0.4,0.1,0.5,0.2
	c1.6,0.9,2.9,2.2,3.9,3.8c0.9,1.6,1.4,3.4,1.4,5.3C21.8,19.8,17.1,24.5,11.4,24.5z M11.3,13.9c-0.8,0-1.7-0.6-1.7-1.4V2.1
	c0-0.8,1-1.4,1.7-1.4S13,1.3,13,2.1v10.3C13,13.2,12,13.9,11.3,13.9z"/>
</svg>
