<svg width="14" height="20" viewBox="0 0 14 20" fill="none" xmlns="http://www.w3.org/2000/svg">
<path d="M12.8333 5.88235C12.8333 4.25765 12.18 2.78706 11.1253 1.72353C10.0695 0.658824 8.61117 0 7 0C5.38883 0 3.9305 0.658824 2.87467 1.72353C1.82 2.78706 1.16667 4.25765 1.16667 5.88235C1.16667 7.50706 1.82 8.97765 2.87467 10.0412C3.9305 11.1059 5.38883 11.7647 7 11.7647C8.61117 11.7647 10.0695 11.1059 11.1253 10.0412C11.6677 9.4956 12.0977 8.84733 12.3909 8.13363C12.684 7.41992 12.8343 6.65484 12.8333 5.88235ZM0 17.6471C0 18.8235 2.625 20 7 20C11.1043 20 14 18.8235 14 17.6471C14 15.2941 11.2537 12.9412 7 12.9412C2.625 12.9412 0 15.2941 0 17.6471Z" fill="white"/>
</svg>
