<svg width="24" height="19" viewBox="0 0 24 19" fill="none" xmlns="http://www.w3.org/2000/svg">
<path fill-rule="evenodd" clip-rule="evenodd" d="M0 2.375C0 1.06332 1.07452 0 2.4 0H21.6C22.92 0 24 1.05687 24 2.375V7.125C22.68 7.125 21.6 8.18188 21.6 9.5C21.6 10.8117 22.6745 11.875 24 11.875V16.625C24 17.9367 22.9255 19 21.6 19H2.4C1.07452 19 0 17.9367 0 16.625V11.875C1.32548 11.875 2.4 10.8117 2.4 9.5C2.4 8.19375 1.332 7.125 0 7.125V2.375ZM18 5.34375L16.2 3.5625L6 13.6562L7.8 15.4375L18 5.34375ZM8.172 3.61C9.348 3.61 10.296 4.54812 10.296 5.71187C10.296 6.87271 9.34505 7.81375 8.172 7.81375C6.996 7.81375 6.048 6.87563 6.048 5.71187C6.048 4.55104 6.99895 3.61 8.172 3.61ZM17.952 13.2881C17.952 12.1244 17.004 11.1862 15.828 11.1862C14.6549 11.1862 13.704 12.1273 13.704 13.2881C13.704 14.4519 14.652 15.39 15.828 15.39C17.0011 15.39 17.952 14.449 17.952 13.2881Z" fill="#E3424B"/>
</svg>
