<?xml version="1.0" encoding="utf-8"?>
<!-- Generator: Adobe Illustrator 23.0.0, SVG Export Plug-In . SVG Version: 6.00 Build 0)  -->
<svg version="1.1" id="Layer_1" xmlns="http://www.w3.org/2000/svg" xmlns:xlink="http://www.w3.org/1999/xlink" x="0px" y="0px"
	 viewBox="0 0 24 24" style="enable-background:new 0 0 24 24;" xml:space="preserve">
<style type="text/css">
	.st0{fill-rule:evenodd;clip-rule:evenodd;fill:#FFFFFF;}
</style>
<path class="st0" d="M9.5,24c-0.3,0-0.6-0.2-0.6-0.5l-0.5-3.2C7.7,20,7,19.6,6.4,19.1l-3.1,1.2c-0.3,0.1-0.6,0-0.8-0.3l-2.5-4.2
	c-0.2-0.3-0.1-0.6,0.1-0.8l2.6-2L2.7,12l0.1-1.2l-2.6-2C0,8.7-0.1,8.3,0.1,8.1l2.5-4.2C2.7,3.7,3,3.6,3.3,3.7l3.1,1.2
	C7,4.4,7.7,4,8.5,3.7l0.5-3.2C9,0.2,9.2,0,9.5,0h4.9c0.3,0,0.6,0.2,0.6,0.5l0.5,3.2C16.3,4,17,4.4,17.6,4.9l3.1-1.2
	c0.3-0.1,0.6,0,0.8,0.3l2.5,4.2c0.2,0.3,0.1,0.6-0.1,0.8l-2.6,2l0.1,1.2l-0.1,1.2l2.6,2c0.2,0.2,0.3,0.5,0.1,0.8l-2.5,4.2
	c-0.1,0.3-0.5,0.4-0.8,0.3l-3.1-1.2c-0.6,0.5-1.3,0.9-2.1,1.2l-0.5,3.2c0,0.3-0.3,0.5-0.6,0.5H9.5z M16.9,12c0-2.7-2.2-4.8-4.9-4.8
	c-2.7,0-4.9,2.1-4.9,4.8c0,2.7,2.2,4.8,4.9,4.8C14.7,16.8,16.9,14.7,16.9,12z M9.5,12c0-1.3,1.1-2.4,2.5-2.4s2.5,1.1,2.5,2.4
	s-1.1,2.4-2.5,2.4S9.5,13.3,9.5,12z M10.6,5.5l0.5-3.1h1.9l0.5,3.1c1.5,0.3,2.8,1.1,3.7,2.1l3-1.2L21,8l-2.6,1.9
	c0.5,1.4,0.5,2.9,0,4.3L21,16l-0.9,1.6l-3-1.2c-0.9,1.1-2.2,1.8-3.7,2.1l-0.5,3.1h-1.9l-0.5-3.1c-1.5-0.3-2.8-1.1-3.7-2.1l-3,1.2
	L3,16l2.6-1.9c-0.5-1.4-0.5-2.9,0-4.3L3,8l0.9-1.6l3,1.2C7.8,6.6,9.1,5.8,10.6,5.5z"/>
</svg>
