<svg width="22" height="25" viewBox="0 0 22 25" fill="none" xmlns="http://www.w3.org/2000/svg">
<path d="M11.359 24.5C5.58903 24.5 0.894531 19.8055 0.894531 14.035C0.894531 10.342 2.78253 6.99349 5.94553 5.07849C6.10656 4.98095 6.28523 4.91609 6.47134 4.8876C6.65744 4.85911 6.84733 4.86755 7.03017 4.91245C7.21301 4.95735 7.38521 5.03782 7.53695 5.14926C7.68869 5.26071 7.81699 5.40096 7.91453 5.56199C8.01207 5.72302 8.07694 5.90169 8.10543 6.0878C8.13392 6.2739 8.12547 6.46379 8.08057 6.64663C8.03568 6.82947 7.95521 7.00167 7.84376 7.15341C7.73231 7.30515 7.59206 7.43345 7.43103 7.53099C5.13353 8.92199 3.76203 11.354 3.76203 14.035C3.76203 18.2245 7.17003 21.6325 11.3595 21.6325C15.549 21.6325 18.9565 18.2245 18.9565 14.035C18.9565 11.31 17.4845 8.77749 15.113 7.42749C14.946 7.33618 14.7989 7.21253 14.6802 7.06374C14.5615 6.91496 14.4736 6.74402 14.4216 6.56091C14.3697 6.37779 14.3547 6.18617 14.3776 5.99721C14.4005 5.80825 14.4608 5.62575 14.555 5.46035C14.6492 5.29495 14.7754 5.14996 14.9262 5.03384C15.077 4.91773 15.2495 4.83281 15.4334 4.78405C15.6174 4.73528 15.8093 4.72365 15.9978 4.74982C16.1864 4.776 16.3678 4.83945 16.5315 4.93649C18.137 5.85256 19.472 7.17649 20.4014 8.77429C21.3307 10.3721 21.8215 12.1871 21.824 14.0355C21.8235 19.8055 17.13 24.5 11.359 24.5ZM11.25 13.892C10.4585 13.892 9.50003 13.25 9.50003 12.4585V2.13699C9.50003 1.34549 10.4585 0.703491 11.25 0.703491C12.0415 0.703491 13 1.34549 13 2.13699V12.4585C13 13.25 12.0415 13.892 11.25 13.892Z" fill="#223142"/>
</svg>
